<svg width="36" height="32" viewBox="0 0 36 32" fill="none" xmlns="http://www.w3.org/2000/svg">
<path d="M7.90039 22.5L17.0773 1.69995H17.1235L26.3004 22.5H22.1165L20.5677 18.9291H13.4944L11.9456 22.5H7.90039ZM14.8813 15.7154H19.1808L18.2793 13.6622C18.0327 13.1117 17.8016 12.5835 17.5858 12.0776C17.3855 11.5569 17.1929 10.9543 17.0079 10.2699C16.8384 10.9394 16.6535 11.5346 16.4532 12.0553C16.2528 12.5761 16.0294 13.1117 15.7828 13.6622L14.8813 15.7154Z" fill="white"/>
<circle cx="29.6" cy="7.19998" r="5.6" fill="#EA84A0"/>
<rect y="10.4023" width="11.5504" height="2.8876" transform="rotate(-64.2377 0 10.4023)" fill="#F97421"/>
<rect x="5.20117" y="12.9124" width="11.5504" height="2.8876" transform="rotate(-64.2377 5.20117 12.9124)" fill="#F97421"/>
<path fill-rule="evenodd" clip-rule="evenodd" d="M5.5998 23.2H0.799805C0.799805 27.6182 4.38153 31.2 8.7998 31.2V26.4C7.03249 26.4 5.5998 24.9673 5.5998 23.2Z" fill="#FFD773"/>
</svg>
